<svg width="192" height="64" viewBox="0 0 192 64" fill="none" xmlns="http://www.w3.org/2000/svg">
<path d="M44.3559 29.7623H38.8271C38.5736 29.7623 38.3682 29.9677 38.3682 30.2212C38.3682 30.4747 38.5736 30.6801 38.8271 30.6801H44.3559C44.6094 30.6801 44.8148 30.4747 44.8148 30.2212C44.8148 29.9677 44.6094 29.7623 44.3559 29.7623Z" fill="#5676E6"/>
<path d="M40.9859 22.6673L37.0765 26.5767C36.8972 26.756 36.8972 27.0465 37.0765 27.2258C37.2557 27.405 37.5463 27.405 37.7255 27.2258L41.635 23.3163C41.8142 23.1371 41.8142 22.8465 41.635 22.6673C41.4557 22.488 41.1652 22.488 40.9859 22.6673Z" fill="#5676E6"/>
<path d="M33.731 20.2296V25.7584C33.731 26.0119 33.9364 26.2173 34.1899 26.2173C34.4434 26.2173 34.6488 26.0119 34.6488 25.7584V20.2296C34.6488 19.9761 34.4434 19.7707 34.1899 19.7707C33.9364 19.7707 33.731 19.9761 33.731 20.2296Z" fill="#5676E6"/>
<path d="M24.459 30.5222H29.9878C30.2413 30.5222 30.4468 30.3167 30.4468 30.0633C30.4468 29.8098 30.2413 29.6043 29.9878 29.6043H24.459C24.2056 29.6043 24.0001 29.8098 24.0001 30.0633C24.0001 30.3167 24.2056 30.5222 24.459 30.5222Z" fill="#5676E6"/>
<path d="M27.797 37.5854L31.7065 33.676C31.8857 33.4967 31.8857 33.2061 31.7065 33.0269C31.5273 32.8477 31.2367 32.8477 31.0574 33.0269L27.148 36.9364C26.9688 37.1156 26.9688 37.4062 27.148 37.5854C27.3272 37.7646 27.6178 37.7646 27.797 37.5854Z" fill="#5676E6"/>
<path d="M26.8174 23.7586L30.9824 27.3946C31.1733 27.5613 31.4633 27.5416 31.6299 27.3507C31.7966 27.1597 31.777 26.8698 31.586 26.7031L27.421 23.0672C27.23 22.9005 26.9401 22.9202 26.7734 23.1111C26.6068 23.302 26.6264 23.592 26.8174 23.7586Z" fill="#5676E6"/>
<path fill-rule="evenodd" clip-rule="evenodd" d="M34.561 30.0178C34.4611 29.9442 34.3417 29.9019 34.2178 29.8962C34.0939 29.8904 33.9711 29.9215 33.8648 29.9854C33.7585 30.0493 33.6736 30.1433 33.6206 30.2555C33.5676 30.3676 33.5491 30.493 33.5672 30.6157L35.2526 42.041C35.2706 42.1634 35.3244 42.2778 35.4072 42.3697C35.49 42.4617 35.5981 42.5271 35.7179 42.5579C35.8377 42.5886 35.964 42.5833 36.0808 42.5426C36.1976 42.5019 36.2998 42.4275 36.3746 42.3289L38.9626 38.9178C39.06 38.7894 39.2032 38.7033 39.3623 38.6775L43.5888 37.9922C43.711 37.9724 43.8245 37.917 43.9153 37.833C44.0061 37.7489 44.07 37.6399 44.0991 37.5196C44.1281 37.3994 44.121 37.2732 44.0787 37.157C44.0363 37.0407 43.9605 36.9396 43.8609 36.8662L34.561 30.0178Z" fill="white"/>
<path d="M51.4023 24.5855H55.3301L59.1928 34.8243H59.2362L63.1639 24.5855H66.8502L60.4061 40.2098H57.6484L51.4023 24.5855Z" fill="white"/>
<path d="M77.0055 38.3559C76.4732 39.0342 75.7838 39.5727 74.9968 39.9251C74.2071 40.2867 73.349 40.4746 72.4804 40.476C71.6864 40.4809 70.8976 40.3468 70.1498 40.0799C69.448 39.8298 68.8031 39.4426 68.2525 38.9409C67.7116 38.4424 67.2795 37.8375 66.9834 37.1642C66.666 36.4343 66.5077 35.645 66.5192 34.8491C66.5074 34.0521 66.6657 33.2618 66.9834 32.5308C67.2795 31.8575 67.7116 31.2527 68.2525 30.7542C68.8039 30.2535 69.4486 29.8664 70.1498 29.6152C70.8976 29.3482 71.6864 29.2141 72.4804 29.219C73.1953 29.2101 73.9047 29.3448 74.5666 29.6152C75.1751 29.8699 75.718 30.2594 76.1544 30.7542C76.6036 31.2737 76.9445 31.8777 77.1572 32.5308C77.4039 33.2784 77.5242 34.0619 77.5132 34.8491V35.8859H69.831C69.9372 36.4728 70.2408 37.0057 70.6914 37.3964C71.1494 37.7769 71.7305 37.9772 72.3257 37.9597C72.8117 37.9762 73.2918 37.8491 73.7061 37.5945C74.0872 37.3475 74.4197 37.0328 74.6873 36.6659L77.0055 38.3559ZM74.2013 33.6327C74.2131 33.3687 74.1702 33.1052 74.0754 32.8586C73.9806 32.6121 73.8359 32.3877 73.6504 32.1996C73.4595 32.0018 73.2291 31.8464 72.9742 31.7435C72.7193 31.6406 72.4456 31.5925 72.1709 31.6022C71.8384 31.5952 71.5079 31.6552 71.199 31.7787C70.935 31.8874 70.692 32.0413 70.481 32.2337C70.2854 32.4126 70.1285 32.6296 70.0198 32.8713C69.91 33.1111 69.846 33.3693 69.831 33.6327H74.2013Z" fill="white"/>
<path d="M79.5188 29.4852H82.8306V31.2061H82.8739C83.1677 30.6156 83.5999 30.1048 84.1337 29.7173C84.6794 29.3684 85.3187 29.1945 85.966 29.219C86.1548 29.219 86.3467 29.219 86.5386 29.2407C86.7174 29.2544 86.8946 29.2845 87.0679 29.3304V32.3544C86.841 32.2823 86.6093 32.2264 86.3746 32.1873C86.1371 32.1494 85.897 32.1308 85.6565 32.1315C85.1427 32.1094 84.6302 32.2003 84.1553 32.3977C83.8069 32.5581 83.5116 32.8148 83.3042 33.1375C83.0963 33.4842 82.9654 33.8716 82.9204 34.2734C82.8585 34.7568 82.8285 35.2438 82.8306 35.7312V40.2099H79.5188V29.4852Z" fill="white"/>
<path d="M88.2809 26.1084C88.2774 25.8555 88.3255 25.6045 88.4223 25.3709C88.5192 25.1372 88.6628 24.9258 88.8443 24.7497C89.0205 24.5682 89.2319 24.4246 89.4655 24.3277C89.6992 24.2309 89.9501 24.1828 90.203 24.1863C90.4554 24.1832 90.7058 24.2315 90.9389 24.3283C91.172 24.4252 91.3829 24.5686 91.5587 24.7497C91.7402 24.9258 91.8838 25.1372 91.9806 25.3709C92.0775 25.6045 92.1256 25.8555 92.122 26.1084C92.1265 26.361 92.0788 26.6118 91.9818 26.845C91.8849 27.0783 91.7408 27.2891 91.5587 27.4641C91.3829 27.6452 91.172 27.7886 90.9389 27.8854C90.7058 27.9823 90.4554 28.0306 90.203 28.0274C89.9501 28.031 89.6992 27.9829 89.4655 27.886C89.2319 27.7892 89.0205 27.6456 88.8443 27.4641C88.6632 27.2883 88.5198 27.0774 88.423 26.8443C88.3261 26.6112 88.2778 26.3608 88.2809 26.1084ZM88.5471 29.4852H91.8589V40.2099H88.5471V29.4852Z" fill="white"/>
<path d="M95.3535 24.5855H98.7953V31.0853L104.865 24.5855H109.368L102.417 31.8467L109.966 40.2037H105.153L98.7953 32.7753V40.2037H95.3535V24.5855Z" fill="#5676E6"/>
<path d="M110.783 23.5239H114.091V40.2098H110.783V23.5239Z" fill="#5676E6"/>
<path d="M116.255 26.1084C116.251 25.8555 116.3 25.6045 116.396 25.3709C116.493 25.1372 116.637 24.9258 116.818 24.7497C116.994 24.5686 117.205 24.4252 117.438 24.3283C117.671 24.2315 117.922 24.1832 118.174 24.1863C118.427 24.1828 118.678 24.2309 118.912 24.3277C119.145 24.4246 119.357 24.5682 119.533 24.7497C119.714 24.9258 119.858 25.1372 119.955 25.3709C120.052 25.6045 120.1 25.8555 120.096 26.1084C120.099 26.3608 120.051 26.6112 119.954 26.8443C119.857 27.0774 119.714 27.2883 119.533 27.4641C119.357 27.6456 119.145 27.7892 118.912 27.886C118.678 27.9829 118.427 28.031 118.174 28.0274C117.922 28.0306 117.671 27.9823 117.438 27.8854C117.205 27.7886 116.994 27.6452 116.818 27.4641C116.637 27.2883 116.494 27.0774 116.397 26.8443C116.3 26.6112 116.252 26.3608 116.255 26.1084ZM116.521 29.4852H119.83V40.2099H116.521V29.4852Z" fill="#5676E6"/>
<path d="M129.468 32.9486C129.292 32.7005 129.057 32.4996 128.784 32.3636C128.492 32.2094 128.167 32.1296 127.837 32.1315C127.477 32.1098 127.116 32.1657 126.779 32.2955C126.442 32.4252 126.137 32.6258 125.884 32.8836C125.406 33.4239 125.157 34.1284 125.188 34.849C125.155 35.5689 125.405 36.2729 125.884 36.8114C126.137 37.0692 126.442 37.2698 126.779 37.3995C127.116 37.5293 127.477 37.5852 127.837 37.5635C128.17 37.573 128.498 37.4883 128.784 37.319C129.041 37.1656 129.272 36.9723 129.468 36.7464L131.653 39.0399C131.153 39.5632 130.526 39.9482 129.833 40.1572C129.187 40.3572 128.514 40.4615 127.837 40.4667C127.043 40.4716 126.254 40.3375 125.506 40.0705C124.805 39.8205 124.16 39.4333 123.609 38.9315C123.067 38.4339 122.635 37.8288 122.34 37.1549C122.023 36.4249 121.864 35.6357 121.876 34.8397C121.864 34.0428 122.022 33.2525 122.34 32.5215C122.635 31.8476 123.067 31.2425 123.609 30.7449C124.161 30.2441 124.805 29.8571 125.506 29.6058C126.254 29.3389 127.043 29.2048 127.837 29.2097C128.514 29.2135 129.187 29.3178 129.833 29.5192C130.526 29.7282 131.152 30.112 131.653 30.6334L129.468 32.9486Z" fill="#5676E6"/>
<path d="M132.852 23.5239H136.163V33.7379L139.828 29.5006H143.889L139.63 34.3321L144 40.2129H139.828L136.207 34.784H136.163V40.2129H132.852V23.5239Z" fill="#5676E6"/>
</svg>
