<svg width="206" height="70" viewBox="0 0 206 70" fill="none" xmlns="http://www.w3.org/2000/svg">
<path d="M47.5901 32.599H41.6582C41.3862 32.599 41.1658 32.8195 41.1658 33.0914C41.1658 33.3634 41.3862 33.5838 41.6582 33.5838H47.5901C47.8621 33.5838 48.0825 33.3634 48.0825 33.0914C48.0825 32.8195 47.8621 32.599 47.5901 32.599Z" fill="white"/>
<path d="M43.9743 24.9866L39.7798 29.1811C39.5875 29.3734 39.5875 29.6852 39.7798 29.8775C39.9721 30.0698 40.2839 30.0698 40.4762 29.8775L44.6707 25.683C44.863 25.4907 44.863 25.1789 44.6707 24.9866C44.4784 24.7943 44.1666 24.7943 43.9743 24.9866Z" fill="white"/>
<path d="M36.1904 22.3712V28.3031C36.1904 28.5751 36.4109 28.7955 36.6828 28.7955C36.9548 28.7955 37.1752 28.5751 37.1752 28.3031V22.3712C37.1752 22.0992 36.9548 21.8788 36.6828 21.8788C36.4109 21.8788 36.1904 22.0992 36.1904 22.3712Z" fill="white"/>
<path d="M26.2424 33.4142H32.1743C32.4463 33.4142 32.6667 33.1937 32.6667 32.9218C32.6667 32.6498 32.4463 32.4294 32.1743 32.4294H26.2424C25.9704 32.4294 25.75 32.6498 25.75 32.9218C25.75 33.1937 25.9704 33.4142 26.2424 33.4142Z" fill="white"/>
<path d="M29.824 40.9924L34.0185 36.7979C34.2108 36.6056 34.2108 36.2938 34.0185 36.1015C33.8262 35.9092 33.5144 35.9092 33.3222 36.1015L29.1276 40.296C28.9353 40.4883 28.9353 40.8001 29.1276 40.9924C29.3199 41.1847 29.6317 41.1847 29.824 40.9924Z" fill="white"/>
<path d="M28.7729 26.1574L33.2416 30.0585C33.4465 30.2373 33.7575 30.2162 33.9364 30.0114C34.1152 29.8065 34.0941 29.4955 33.8893 29.3166L29.4205 25.4155C29.2157 25.2367 28.9046 25.2578 28.7258 25.4627C28.5469 25.6675 28.568 25.9786 28.7729 26.1574Z" fill="white"/>
<path fill-rule="evenodd" clip-rule="evenodd" d="M37.081 32.8731C36.9738 32.7942 36.8457 32.7488 36.7128 32.7427C36.5799 32.7365 36.4481 32.7698 36.334 32.8384C36.22 32.907 36.1288 33.0078 36.072 33.1282C36.0152 33.2485 35.9953 33.383 36.0148 33.5146L37.823 45.7731C37.8424 45.9044 37.9001 46.0271 37.9889 46.1257C38.0777 46.2244 38.1937 46.2946 38.3222 46.3276C38.4508 46.3606 38.5863 46.3549 38.7116 46.3112C38.837 46.2675 38.9466 46.1878 39.0268 46.082L41.8035 42.4221C41.9081 42.2843 42.0617 42.192 42.2324 42.1643L46.7671 41.429C46.8981 41.4078 47.02 41.3484 47.1174 41.2582C47.2148 41.168 47.2834 41.051 47.3146 40.922C47.3457 40.793 47.3381 40.6576 47.2927 40.5329C47.2472 40.4082 47.1659 40.2996 47.059 40.2209L37.081 32.8731Z" fill="white"/>
<path d="M55.1504 27.0444H59.3645L63.5089 38.0298H63.5554L67.7696 27.0444H71.7247L64.8107 43.808H61.8518L55.1504 27.0444Z" fill="white"/>
<path d="M82.6206 41.8188C82.0494 42.5466 81.3097 43.1244 80.4653 43.5025C79.618 43.8904 78.6974 44.092 77.7655 44.0936C76.9136 44.0988 76.0673 43.9549 75.2649 43.6685C74.512 43.4003 73.82 42.9848 73.2292 42.4465C72.6489 41.9116 72.1854 41.2627 71.8677 40.5403C71.527 39.7571 71.3572 38.9103 71.3695 38.0563C71.357 37.2012 71.5268 36.3533 71.8677 35.569C72.1854 34.8466 72.6489 34.1977 73.2292 33.6628C73.8208 33.1256 74.5126 32.7103 75.2649 32.4408C76.0673 32.1544 76.9136 32.0105 77.7655 32.0157C78.5325 32.0062 79.2936 32.1507 80.0037 32.4408C80.6567 32.7141 81.2391 33.132 81.7073 33.6628C82.1893 34.2203 82.5551 34.8683 82.7833 35.569C83.048 36.3711 83.1771 37.2117 83.1652 38.0563V39.1688H74.9229C75.0368 39.7984 75.3625 40.3702 75.846 40.7894C76.3374 41.1976 76.9609 41.4125 77.5994 41.3938C78.1209 41.4114 78.636 41.2751 79.0805 41.0019C79.4894 40.737 79.8462 40.3993 80.1333 40.0056L82.6206 41.8188ZM79.6119 36.7512C79.6245 36.4681 79.5785 36.1853 79.4768 35.9208C79.3751 35.6562 79.2198 35.4155 79.0208 35.2137C78.8159 35.0015 78.5688 34.8347 78.2953 34.7243C78.0218 34.6139 77.7282 34.5622 77.4334 34.5728C77.0766 34.5652 76.722 34.6296 76.3907 34.762C76.1074 34.8787 75.8466 35.0439 75.6202 35.2502C75.4104 35.4422 75.2421 35.675 75.1254 35.9343C75.0077 36.1916 74.939 36.4687 74.9229 36.7512H79.6119Z" fill="white"/>
<path d="M85.3171 32.3015H88.8704V34.1478H88.9169C89.2321 33.5143 89.6958 32.9662 90.2685 32.5505C90.854 32.1762 91.54 31.9896 92.2345 32.0159C92.437 32.0159 92.6429 32.0159 92.8488 32.0391C93.0406 32.0539 93.2307 32.0861 93.4167 32.1354V35.3799C93.1733 35.3025 92.9247 35.2425 92.6728 35.2005C92.418 35.1599 92.1604 35.14 91.9024 35.1408C91.3511 35.117 90.8013 35.2145 90.2918 35.4264C89.9179 35.5985 89.6011 35.8738 89.3785 36.22C89.1555 36.5921 89.0151 37.0077 88.9667 37.4388C88.9003 37.9575 88.8682 38.48 88.8704 39.0029V43.8082H85.3171V32.3015Z" fill="white"/>
<path d="M94.718 28.6785C94.7141 28.4072 94.7658 28.1379 94.8697 27.8872C94.9736 27.6365 95.1277 27.4097 95.3224 27.2207C95.5114 27.026 95.7382 26.8719 95.9889 26.768C96.2396 26.6641 96.5089 26.6124 96.7802 26.6163C97.051 26.6129 97.3197 26.6647 97.5697 26.7686C97.8198 26.8726 98.0461 27.0264 98.2347 27.2207C98.4295 27.4097 98.5835 27.6365 98.6874 27.8872C98.7914 28.1379 98.843 28.4072 98.8391 28.6785C98.8439 28.9495 98.7927 29.2186 98.6887 29.4688C98.5847 29.7191 98.4302 29.9453 98.2347 30.1331C98.0461 30.3274 97.8198 30.4812 97.5697 30.5851C97.3197 30.689 97.051 30.7408 96.7802 30.7375C96.5089 30.7413 96.2396 30.6897 95.9889 30.5857C95.7382 30.4818 95.5114 30.3278 95.3224 30.1331C95.1281 29.9444 94.9743 29.7181 94.8703 29.468C94.7664 29.218 94.7146 28.9493 94.718 28.6785ZM95.0036 32.3016H98.5569V43.8083H95.0036V32.3016Z" fill="white"/>
<path d="M102.306 27.0444H105.999V34.0182L112.511 27.0444H117.343L109.885 34.8351L117.984 43.8014H112.82L105.999 35.8314V43.8014H102.306V27.0444Z" fill="white"/>
<path d="M118.861 25.9054H122.411V43.808H118.861V25.9054Z" fill="white"/>
<path d="M124.732 28.6785C124.728 28.4072 124.78 28.1379 124.884 27.8872C124.988 27.6365 125.142 27.4097 125.336 27.2207C125.525 27.0264 125.751 26.8726 126.001 26.7686C126.251 26.6647 126.52 26.6129 126.791 26.6163C127.062 26.6124 127.331 26.6641 127.582 26.768C127.833 26.8719 128.06 27.026 128.249 27.2207C128.443 27.4097 128.597 27.6365 128.701 27.8872C128.805 28.1379 128.857 28.4072 128.853 28.6785C128.856 28.9493 128.805 29.218 128.701 29.468C128.597 29.7181 128.443 29.9444 128.249 30.1331C128.06 30.3278 127.833 30.4818 127.582 30.5857C127.331 30.6897 127.062 30.7413 126.791 30.7375C126.52 30.7408 126.251 30.689 126.001 30.5851C125.751 30.4812 125.525 30.3274 125.336 30.1331C125.142 29.9444 124.988 29.7181 124.884 29.468C124.78 29.218 124.728 28.9493 124.732 28.6785ZM125.017 32.3016H128.567V43.8083H125.017V32.3016Z" fill="white"/>
<path d="M138.909 36.0175C138.719 35.7512 138.467 35.5357 138.175 35.3898C137.862 35.2243 137.513 35.1388 137.159 35.1407C136.772 35.1175 136.385 35.1775 136.023 35.3167C135.662 35.4559 135.334 35.6711 135.063 35.9477C134.55 36.5274 134.283 37.2833 134.316 38.0564C134.281 38.8288 134.549 39.5841 135.063 40.1619C135.334 40.4385 135.662 40.6537 136.023 40.7929C136.385 40.9321 136.772 40.9921 137.159 40.9688C137.515 40.9791 137.868 40.8881 138.175 40.7065C138.45 40.542 138.698 40.3346 138.909 40.0921L141.253 42.5529C140.717 43.1144 140.044 43.5274 139.3 43.7517C138.607 43.9663 137.885 44.0781 137.159 44.0838C136.307 44.089 135.46 43.9451 134.658 43.6587C133.905 43.3904 133.213 42.975 132.622 42.4366C132.041 41.9027 131.577 41.2535 131.261 40.5305C130.92 39.7473 130.75 38.9005 130.763 38.0465C130.75 37.1914 130.92 36.3435 131.261 35.5592C131.577 34.8361 132.041 34.1869 132.622 33.653C133.214 33.1158 133.906 32.7005 134.658 32.4309C135.46 32.1445 136.307 32.0007 137.159 32.0059C137.885 32.01 138.607 32.1219 139.3 32.338C140.043 32.5623 140.716 32.974 141.253 33.5335L138.909 36.0175Z" fill="white"/>
<path d="M142.539 25.9054H146.092V36.8642L150.024 32.3179H154.381L149.811 37.5018L154.5 43.8114H150.024L146.138 37.9866H146.092V43.8114H142.539V25.9054Z" fill="white"/>
</svg>
